# xmcd
# 
# Track frame offsets:
#     182
#     18692
#     39107
#     59317
#     82157
#     98815
#     114727
#     131335
#     152822
#     169190
#     183150
# 
# Disc length: 2705
# 
# Revision: 2
# Processed by: cddbd v1.5.2PL0 Copyright (c) Steve Scherf et al.
# Submitted via: fre:ac v1.1beta1pre5
# 
DISCID=890a8f0b
DTITLE=Little Bob - Rendez-Vous In Angel City
DYEAR=1989
DGENRE=Blues
TTITLE0=Isn't It Enough
TTITLE1=Midnight Crisis
TTITLE2=There'll Never Be Another You
TTITLE3=As The Lights Go Out
TTITLE4=I Can't Wait
TTITLE5=Keep On Running
TTITLE6=True Love
TTITLE7=When The Night Falls
TTITLE8=House Of Fire
TTITLE9=Gimme You
TTITLE10=Never Cry About The Past
EXTD=YEAR: 1989
EXTT0=
EXTT1=
EXTT2=
EXTT3=
EXTT4=
EXTT5=
EXTT6=
EXTT7=
EXTT8=
EXTT9=
EXTT10=
PLAYORDER=
